<svg xmlns="http://www.w3.org/2000/svg" id="prefix__icon_localization" width="14" height="18.606" data-name="icon localization" viewBox="0 0 14 18.606">
    <g id="prefix__Path_47" data-name="Path 47" style="fill:none;stroke-linejoin:round">
        <path d="M7 0a7 7 0 0 1 7 7c0 3.866-4.4 11.642-7 11.606S0 10.866 0 7a7 7 0 0 1 7-7z" style="stroke:none"/>
        <path d="M7 2C4.243 2 2 4.243 2 7c0 1.342.818 3.697 2.036 5.86 1.309 2.322 2.5 3.442 2.981 3.706.479-.265 1.664-1.387 2.963-3.71C11.188 10.692 12 8.34 12 7c0-2.757-2.243-5-5-5m0-2c3.866 0 7 3.134 7 7 0 3.857-4.376 11.606-6.982 11.606H7C4.396 18.57 0 10.866 0 7c0-3.866 3.134-7 7-7z" style="stroke:none;fill:#22252a"/>
    </g>
    <circle id="prefix__Ellipse_14" cx="2" cy="2" r="2" data-name="Ellipse 14" transform="translate(4.936 5.466)" style="fill:#22252a"/>
</svg>
